<mxfile host="app.diagrams.net" modified="2023-08-22T03:00:37.195Z" agent="Mozilla/5.0 (Macintosh; Intel Mac OS X 10_15_7) AppleWebKit/537.36 (KHTML, like Gecko) Chrome/115.0.0.0 Safari/537.36" version="21.3.8" etag="zXxEIuSoeVgivJu2CBez" type="github">
  <diagram name="第 1 页" id="r6NgxxDx4FX8XlKe3o4B">
    <mxGraphModel>
      <root>
        <mxCell id="0" />
        <mxCell id="1" parent="0" />
      </root>
    </mxGraphModel>
  </diagram>
</mxfile>
